  0
SECTION
  2
HEADER
  9
$ACADVER
  1
AC1015
  9
$ACADMAINTVER
 70
     6
  9
$DWGCODEPAGE
  3
ANSI_1252
  9
$INSBASE
 10
0.0
 20
0.0
 30
0.0
  9
$EXTMIN
 10
0.0
 20
-0.0625
 30
0.0
  9
$EXTMAX
 10
15.0625
 20
11.6875
 30
0.0
  9
$LIMMIN
 10
0.0
 20
0.0
  9
$LIMMAX
 10
12.0
 20
9.0
  9
$ORTHOMODE
 70
     0
  9
$REGENMODE
 70
     1
  9
$FILLMODE
 70
     1
  9
$QTEXTMODE
 70
     0
  9
$MIRRTEXT
 70
     0
  9
$LTSCALE
 40
1.0
  9
$ATTMODE
 70
     1
  9
$TEXTSIZE
 40
0.2
  9
$TRACEWID
 40
0.05
  9
$TEXTSTYLE
  7
Standard
  9
$CLAYER
  8
0
  9
$CELTYPE
  6
ByLayer
  9
$CECOLOR
 62
   256
  9
$CELTSCALE
 40
1.0
  9
$DISPSILH
 70
     0
  9
$DIMSCALE
 40
1.0
  9
$DIMASZ
 40
0.18
  9
$DIMEXO
 40
0.0625
  9
$DIMDLI
 40
0.38
  9
$DIMRND
 40
0.0
  9
$DIMDLE
 40
0.0
  9
$DIMEXE
 40
0.18
  9
$DIMTP
 40
0.0
  9
$DIMTM
 40
0.0
  9
$DIMTXT
 40
0.18
  9
$DIMCEN
 40
0.09
  9
$DIMTSZ
 40
0.0
  9
$DIMTOL
 70
     0
  9
$DIMLIM
 70
     0
  9
$DIMTIH
 70
     1
  9
$DIMTOH
 70
     1
  9
$DIMSE1
 70
     0
  9
$DIMSE2
 70
     0
  9
$DIMTAD
 70
     0
  9
$DIMZIN
 70
     0
  9
$DIMBLK
  1

  9
$DIMASO
 70
     1
  9
$DIMSHO
 70
     1
  9
$DIMPOST
  1

  9
$DIMAPOST
  1

  9
$DIMALT
 70
     0
  9
$DIMALTD
 70
     2
  9
$DIMALTF
 40
25.4
  9
$DIMLFAC
 40
1.0
  9
$DIMTOFL
 70
     0
  9
$DIMTVP
 40
0.0
  9
$DIMTIX
 70
     0
  9
$DIMSOXD
 70
     0
  9
$DIMSAH
 70
     0
  9
$DIMBLK1
  1

  9
$DIMBLK2
  1

  9
$DIMSTYLE
  2
Standard
  9
$DIMCLRD
 70
     0
  9
$DIMCLRE
 70
     0
  9
$DIMCLRT
 70
     0
  9
$DIMTFAC
 40
1.0
  9
$DIMGAP
 40
0.09
  9
$DIMJUST
 70
     0
  9
$DIMSD1
 70
     0
  9
$DIMSD2
 70
     0
  9
$DIMTOLJ
 70
     1
  9
$DIMTZIN
 70
     0
  9
$DIMALTZ
 70
     0
  9
$DIMALTTZ
 70
     0
  9
$DIMUPT
 70
     0
  9
$DIMDEC
 70
     4
  9
$DIMTDEC
 70
     4
  9
$DIMALTU
 70
     2
  9
$DIMALTTD
 70
     2
  9
$DIMTXSTY
  7
Standard
  9
$DIMAUNIT
 70
     0
  9
$DIMADEC
 70
     0
  9
$DIMALTRND
 40
0.0
  9
$DIMAZIN
 70
     0
  9
$DIMDSEP
 70
    46
  9
$DIMATFIT
 70
     3
  9
$DIMFRAC
 70
     0
  9
$DIMLDRBLK
  1

  9
$DIMLUNIT
 70
     2
  9
$DIMLWD
 70
    -2
  9
$DIMLWE
 70
    -2
  9
$DIMTMOVE
 70
     0
  9
$LUNITS
 70
     2
  9
$LUPREC
 70
     4
  9
$SKETCHINC
 40
0.1
  9
$FILLETRAD
 40
0.0
  9
$AUNITS
 70
     0
  9
$AUPREC
 70
     0
  9
$MENU
  1
.
  9
$ELEVATION
 40
0.0
  9
$PELEVATION
 40
0.0
  9
$THICKNESS
 40
0.0
  9
$LIMCHECK
 70
     0
  9
$CHAMFERA
 40
0.0
  9
$CHAMFERB
 40
0.0
  9
$CHAMFERC
 40
0.0
  9
$CHAMFERD
 40
0.0
  9
$SKPOLY
 70
     0
  9
$TDCREATE
 40
2452642.855050926
  9
$TDUCREATE
 40
2452643.063384271
  9
$TDUPDATE
 40
2456345.698460637
  9
$TDUUPDATE
 40
2456345.906793981
  9
$TDINDWG
 40
0.0042459954
  9
$TDUSRTIMER
 40
2456345.863252315
  9
$USRTIMER
 70
     1
  9
$ANGBASE
 50
0.0
  9
$ANGDIR
 70
     0
  9
$PDMODE
 70
     0
  9
$PDSIZE
 40
0.0
  9
$PLINEWID
 40
0.0
  9
$SPLFRAME
 70
     0
  9
$SPLINETYPE
 70
     6
  9
$SPLINESEGS
 70
     8
  9
$HANDSEED
  5
ED3
  9
$SURFTAB1
 70
     6
  9
$SURFTAB2
 70
     6
  9
$SURFTYPE
 70
     6
  9
$SURFU
 70
     6
  9
$SURFV
 70
     6
  9
$UCSBASE
  2

  9
$UCSNAME
  2

  9
$UCSORG
 10
0.0
 20
0.0
 30
0.0
  9
$UCSXDIR
 10
1.0
 20
0.0
 30
0.0
  9
$UCSYDIR
 10
0.0
 20
1.0
 30
0.0
  9
$UCSORTHOREF
  2

  9
$UCSORTHOVIEW
 70
     0
  9
$UCSORGTOP
 10
0.0
 20
0.0
 30
0.0
  9
$UCSORGBOTTOM
 10
0.0
 20
0.0
 30
0.0
  9
$UCSORGLEFT
 10
0.0
 20
0.0
 30
0.0
  9
$UCSORGRIGHT
 10
0.0
 20
0.0
 30
0.0
  9
$UCSORGFRONT
 10
0.0
 20
0.0
 30
0.0
  9
$UCSORGBACK
 10
0.0
 20
0.0
 30
0.0
  9
$PUCSBASE
  2

  9
$PUCSNAME
  2

  9
$PUCSORG
 10
0.0
 20
0.0
 30
0.0
  9
$PUCSXDIR
 10
1.0
 20
0.0
 30
0.0
  9
$PUCSYDIR
 10
0.0
 20
1.0
 30
0.0
  9
$PUCSORTHOREF
  2

  9
$PUCSORTHOVIEW
 70
     0
  9
$PUCSORGTOP
 10
0.0
 20
0.0
 30
0.0
  9
$PUCSORGBOTTOM
 10
0.0
 20
0.0
 30
0.0
  9
$PUCSORGLEFT
 10
0.0
 20
0.0
 30
0.0
  9
$PUCSORGRIGHT
 10
0.0
 20
0.0
 30
0.0
  9
$PUCSORGFRONT
 10
0.0
 20
0.0
 30
0.0
  9
$PUCSORGBACK
 10
0.0
 20
0.0
 30
0.0
  9
$USERI1
 70
     0
  9
$USERI2
 70
     0
  9
$USERI3
 70
     0
  9
$USERI4
 70
     0
  9
$USERI5
 70
     0
  9
$USERR1
 40
0.0
  9
$USERR2
 40
0.0
  9
$USERR3
 40
0.0
  9
$USERR4
 40
0.0
  9
$USERR5
 40
0.0
  9
$WORLDVIEW
 70
     1
  9
$SHADEDGE
 70
     3
  9
$SHADEDIF
 70
    70
  9
$TILEMODE
 70
     1
  9
$MAXACTVP
 70
    64
  9
$PINSBASE
 10
0.0
 20
0.0
 30
0.0
  9
$PLIMCHECK
 70
     0
  9
$PEXTMIN
 10
0.0
 20
0.0
 30
0.0
  9
$PEXTMAX
 10
0.0
 20
0.0
 30
0.0
  9
$PLIMMIN
 10
0.0
 20
0.0
  9
$PLIMMAX
 10
0.0
 20
0.0
  9
$UNITMODE
 70
     0
  9
$VISRETAIN
 70
     1
  9
$PLINEGEN
 70
     0
  9
$PSLTSCALE
 70
     1
  9
$TREEDEPTH
 70
  3020
  9
$CMLSTYLE
  2
Standard
  9
$CMLJUST
 70
     0
  9
$CMLSCALE
 40
1.0
  9
$PROXYGRAPHICS
 70
     1
  9
$MEASUREMENT
 70
     0
  9
$CELWEIGHT
370
    -1
  9
$ENDCAPS
280
     0
  9
$JOINSTYLE
280
     0
  9
$LWDISPLAY
290
     0
  9
$INSUNITS
 70
     1
  9
$HYPERLINKBASE
  1

  9
$STYLESHEET
  1

  9
$XEDIT
290
     1
  9
$CEPSNTYPE
380
     0
  9
$PSTYLEMODE
290
     1
  9
$FINGERPRINTGUID
  2
{FDEAD576-A652-11D2-9A35-0060089B3A3F}
  9
$VERSIONGUID
  2
{FBC2AE19-5C5C-49EC-81BC-71B1A3362A02}
  9
$EXTNAMES
290
     1
  9
$PSVPSCALE
 40
0.0
  9
$OLESTARTUP
290
     0
  0
ENDSEC
  0
SECTION
  2
CLASSES
  0
CLASS
  1
ACDBDICTIONARYWDFLT
  2
AcDbDictionaryWithDefault
  3
ObjectDBX Classes
 90
        0
280
     0
281
     0
  0
CLASS
  1
ACDBPLACEHOLDER
  2
AcDbPlaceHolder
  3
ObjectDBX Classes
 90
        0
280
     0
281
     0
  0
CLASS
  1
LAYOUT
  2
AcDbLayout
  3
ObjectDBX Classes
 90
        0
280
     0
281
     0
  0
CLASS
  1
DICTIONARYVAR
  2
AcDbDictionaryVar
  3
ObjectDBX Classes
 90
        0
280
     0
281
     0
  0
CLASS
  1
TABLESTYLE
  2
AcDbTableStyle
  3
ObjectDBX Classes
 90
     4095
280
     0
281
     0
  0
CLASS
  1
MATERIAL
  2
AcDbMaterial
  3
ObjectDBX Classes
 90
     1153
280
     0
281
     0
  0
CLASS
  1
VISUALSTYLE
  2
AcDbVisualStyle
  3
ObjectDBX Classes
 90
     4095
280
     0
281
     0
  0
CLASS
  1
SCALE
  2
AcDbScale
  3
ObjectDBX Classes
 90
     1153
280
     0
281
     0
  0
CLASS
  1
CELLSTYLEMAP
  2
AcDbCellStyleMap
  3
ObjectDBX Classes
 90
     1152
280
     0
281
     0
  0
CLASS
  1
RASTERVARIABLES
  2
AcDbRasterVariables
  3
ISM
 90
        0
280
     0
281
     0
  0
CLASS
  1
IMAGEDEF
  2
AcDbRasterImageDef
  3
ISM
 90
        0
280
     0
281
     0
  0
CLASS
  1
IMAGE
  2
AcDbRasterImage
  3
ISM
 90
      127
280
     0
281
     1
  0
CLASS
  1
IMAGEDEF_REACTOR
  2
AcDbRasterImageDefReactor
  3
ISM
 90
        1
280
     0
281
     0
  0
ENDSEC
  0
SECTION
  2
TABLES
  0
TABLE
  2
VPORT
  5
8
330
0
100
AcDbSymbolTable
 70
     1
  0
VPORT
  5
94
330
8
100
AcDbSymbolTableRecord
100
AcDbViewportTableRecord
  2
*Active
 70
     0
 10
0.0
 20
0.0
 11
1.0
 21
1.0
 12
35.83968904055362
 22
22.28356840868641
 13
0.0
 23
0.0
 14
0.03125
 24
0.03125
 15
0.5
 25
0.5
 16
0.0
 26
0.0
 36
1.0
 17
-27.66959356597978
 27
-19.53870295786203
 37
0.0
 40
8.80457142857133
 41
3.587743732590529
 42
50.0
 43
0.0
 44
0.0
 50
0.0
 51
0.0
 71
    16
 72
  1000
 73
     1
 74
     3
 75
     0
 76
     0
 77
     0
 78
     0
281
     0
 65
     1
110
0.0
120
0.0
130
0.0
111
1.0
121
0.0
131
0.0
112
0.0
122
1.0
132
0.0
 79
     0
146
0.0
  0
ENDTAB
  0
TABLE
  2
LTYPE
  5
5
330
0
100
AcDbSymbolTable
 70
     1
  0
LTYPE
  5
14
330
5
100
AcDbSymbolTableRecord
100
AcDbLinetypeTableRecord
  2
ByBlock
 70
     0
  3

 72
    65
 73
     0
 40
0.0
  0
LTYPE
  5
15
330
5
100
AcDbSymbolTableRecord
100
AcDbLinetypeTableRecord
  2
ByLayer
 70
     0
  3

 72
    65
 73
     0
 40
0.0
  0
LTYPE
  5
16
330
5
100
AcDbSymbolTableRecord
100
AcDbLinetypeTableRecord
  2
Continuous
 70
     0
  3
Solid line
 72
    65
 73
     0
 40
0.0
  0
ENDTAB
  0
TABLE
  2
LAYER
  5
2
102
{ACAD_XDICTIONARY
360
130
102
}
330
0
100
AcDbSymbolTable
 70
     4
  0
LAYER
  5
10
330
2
100
AcDbSymbolTableRecord
100
AcDbLayerTableRecord
  2
0
 70
     0
 62
     1
  6
Continuous
370
    -3
390
F
  0
LAYER
  5
ED
330
2
100
AcDbSymbolTableRecord
100
AcDbLayerTableRecord
  2
CTHacker|0.0625
 70
    48
 62
     7
  6
Continuous
370
    -3
390
F
1001
AcAecLayerStandard
1000

1000

  0
LAYER
  5
EE
330
2
100
AcDbSymbolTableRecord
100
AcDbLayerTableRecord
  2
CTHacker|0.000
 70
    48
 62
     7
  6
Continuous
370
    -3
390
F
1001
AcAecLayerStandard
1000

1000

  0
LAYER
  5
EF
330
2
100
AcDbSymbolTableRecord
100
AcDbLayerTableRecord
  2
CTHacker|0.125
 70
    48
 62
     7
  6
Continuous
370
    -3
390
F
1001
AcAecLayerStandard
1000

1000

  0
ENDTAB
  0
TABLE
  2
STYLE
  5
3
330
0
100
AcDbSymbolTable
 70
     1
  0
STYLE
  5
11
330
3
100
AcDbSymbolTableRecord
100
AcDbTextStyleTableRecord
  2
Standard
 70
     0
 40
0.0
 41
1.0
 50
0.0
 71
     0
 42
0.2
  3
txt
  4

  0
ENDTAB
  0
TABLE
  2
VIEW
  5
6
330
0
100
AcDbSymbolTable
 70
     0
  0
ENDTAB
  0
TABLE
  2
UCS
  5
7
330
0
100
AcDbSymbolTable
 70
     0
  0
ENDTAB
  0
TABLE
  2
APPID
  5
9
330
0
100
AcDbSymbolTable
 70
     2
  0
APPID
  5
12
330
9
100
AcDbSymbolTableRecord
100
AcDbRegAppTableRecord
  2
ACAD
 70
     0
  0
APPID
  5
EC
330
9
100
AcDbSymbolTableRecord
100
AcDbRegAppTableRecord
  2
AcAecLayerStandard
 70
     0
  0
ENDTAB
  0
TABLE
  2
DIMSTYLE
  5
A
330
0
100
AcDbSymbolTable
 70
     1
100
AcDbDimStyleTable
  0
DIMSTYLE
105
27
330
A
100
AcDbSymbolTableRecord
100
AcDbDimStyleTableRecord
  2
Standard
 70
     0
178
     0
340
11
  0
ENDTAB
  0
TABLE
  2
BLOCK_RECORD
  5
1
330
0
100
AcDbSymbolTable
 70
     2
  0
BLOCK_RECORD
  5
1F
330
1
100
AcDbSymbolTableRecord
100
AcDbBlockTableRecord
  2
*Model_Space
340
22
  0
BLOCK_RECORD
  5
58
330
1
100
AcDbSymbolTableRecord
100
AcDbBlockTableRecord
  2
*Paper_Space
340
59
  0
BLOCK_RECORD
  5
5D
330
1
100
AcDbSymbolTableRecord
100
AcDbBlockTableRecord
  2
*Paper_Space0
340
5E
  0
BLOCK_RECORD
  5
E7
330
1
100
AcDbSymbolTableRecord
100
AcDbBlockTableRecord
  2
CTHacker
340
0
102
{BLKREFS
331
0
102
}
  0
ENDTAB
  0
ENDSEC
  0
SECTION
  2
BLOCKS
  0
BLOCK
  5
20
330
1F
100
AcDbEntity
  8
0
100
AcDbBlockBegin
  2
*Model_Space
 70
     0
 10
0.0
 20
0.0
 30
0.0
  3
*Model_Space
  1

  0
ENDBLK
  5
21
330
1F
100
AcDbEntity
  8
0
100
AcDbBlockEnd
  0
BLOCK
  5
5A
330
58
100
AcDbEntity
 67
     1
  8
0
100
AcDbBlockBegin
  2
*Paper_Space
 70
     0
 10
0.0
 20
0.0
 30
0.0
  3
*Paper_Space
  1

  0
ENDBLK
  5
5B
330
58
100
AcDbEntity
 67
     1
  8
0
100
AcDbBlockEnd
  0
BLOCK
  5
5F
330
5D
100
AcDbEntity
  8
0
100
AcDbBlockBegin
  2
*Paper_Space0
 70
     0
 10
0.0
 20
0.0
 30
0.0
  3
*Paper_Space0
  1

  0
ENDBLK
  5
60
330
5D
100
AcDbEntity
  8
0
100
AcDbBlockEnd
  0
BLOCK
  5
E8
330
E7
100
AcDbEntity
  8
0
100
AcDbBlockBegin
  2
CTHacker
 70
   100
 10
0.0
 20
0.0
 30
0.0
  3
CTHacker
  1
/home/tocs/4gary/play/3dSheetCam/CTHacker.dwg
  0
ENDBLK
  5
E9
330
E7
100
AcDbEntity
  8
0
100
AcDbBlockEnd
  0
ENDSEC
  0
SECTION
  2
ENTITIES
  0
CIRCLE
  5
111
330
1F
100
AcDbEntity
  8
0
100
AcDbCircle
 10
4.8
 20
5.104807078748758
 30
0.0
 40
0.1927888192973666
  0
CIRCLE
  5
112
330
1F
100
AcDbEntity
  8
0
100
AcDbCircle
 10
6.85
 20
5.104799999999999
 30
0.0
 40
0.1927888192973666
  0
CIRCLE
  5
145
330
1F
100
AcDbEntity
  8
0
100
AcDbCircle
 10
5.844498437540553
 20
2.438045158494292
 30
0.0
 40
0.1927888192973666
  0
LWPOLYLINE
  5
8AE
330
1F
100
AcDbEntity
  8
0
100
AcDbPolyline
 90
      163
 70
     1
 43
0.0
 10
7.406304783989655
 20
3.968797991334603
 42
0.4143072613213654
 10
7.250002800000001
 20
3.81254999998208
 10
7.25
 20
3.37505
 42
0.4143072613213643
 10
7.406299984002561
 20
3.218800007994882
 10
8.1875
 20
3.21875
 10
8.1875
 20
2.489034707521047
 42
0.5914248374130369
 10
8.09375
 20
1.75
 10
8.09375
 20
2.125
 10
8.34375
 20
2.28125
 10
8.59375
 20
2.125
 10
8.59375
 20
1.75
 42
0.5914248374130369
 10
8.5
 20
2.489034707521047
 10
8.5
 20
3.21875
 10
9.03125
 20
3.21875
 42
0.3627177008539743
 10
9.218300568924406
 20
3.375
 10
9.375
 20
3.375
 10
9.375
 20
3.3125
 42
0.8198039027185572
 10
9.53125
 20
3.3125
 10
9.53125
 20
3.5
 10
9.980902777777779
 20
3.5
 10
10.0
 20
2.8125
 10
10.03125
 20
2.75
 10
10.0625
 20
1.75
 10
10.13239018443014
 20
1.703406543713243
 10
10.12670534493162
 20
1.5314461201349
 10
10.06064937142249
 20
1.372911783713001
 10
9.978853901366271
 20
1.2722404359515
 10
9.79433715442983
 20
1.179630401933944
 10
9.597843168342637
 20
1.102525166887071
 10
9.362792723428603
 20
1.050566647485021
 10
9.175895547999293
 20
1.038430467262338
 10
9.003792362775762
 20
1.055682055230178
 10
8.747328883517524
 20
1.103175292129851
 10
8.492999643577003
 20
1.18365922881989
 10
8.22493400265281
 20
1.2674297416087
 10
7.963890050844427
 20
1.322386363042044
 10
7.707124296099088
 20
1.343205208021396
 10
7.525497310919285
 20
1.332924435275369
 10
7.300216028753384
 20
1.31884435514
 10
7.094929492781183
 20
1.244516471425927
 10
6.895551951389301
 20
1.168088413892373
 10
6.732524638280368
 20
1.101546653439747
 10
6.569784874248175
 20
1.032071701777439
 10
6.3460376280591
 20
0.9730272895886556
 10
6.136700987646432
 20
0.9457225104043945
 10
5.960955228917158
 20
0.9632970862773219
 10
5.723173402256314
 20
1.038386084170221
 10
5.544150125878984
 20
1.105519812811719
 10
5.272456931641725
 20
1.226636056025919
 10
4.9358153684016
 20
1.365817186020331
 10
4.715981010259972
 20
1.4234786570083
 10
4.404607933966471
 20
1.4234786570083
 10
4.242615517440706
 20
1.416278994051599
 10
3.982806701265879
 20
1.342549465137121
 10
3.764873348800785
 20
1.255376124151083
 10
3.551708630323638
 20
1.174662393180215
 10
3.338485317077278
 20
1.086092709216342
 10
3.057956421264358
 20
0.9849718281674988
 10
2.901745639536995
 20
0.9298386110872529
 10
2.826278142331156
 20
0.9222918613666691
 10
2.664806186510934
 20
0.9428428375619701
 10
2.537094706472962
 20
0.9814532850153106
 10
2.351126659967915
 20
1.06340530550906
 10
2.087269414992
 20
1.198632143559216
 10
1.806817976336134
 20
1.318337025912329
 10
1.656071778341219
 20
1.356023575411058
 10
1.500083453606022
 20
1.367184215996158
 42
0.2854179685354966
 10
1.1875
 20
1.59375
 10
1.0
 20
1.59375
 10
1.0
 20
1.53125
 10
0.6875
 20
1.53125
 10
0.6875
 20
1.4375
 10
1.0
 20
1.4375
 10
1.0
 20
1.1875
 10
0.6875
 20
1.1875
 10
0.6875
 20
1.09375
 10
1.0
 20
1.09375
 10
1.0
 20
1.03125
 10
1.1875
 20
1.03125
 42
0.2854179685354964
 10
1.500083453606022
 20
1.257815784003842
 10
1.643193775683777
 20
1.256165435434977
 10
1.774862808904565
 20
1.22324817712978
 10
2.044784327007179
 20
1.108037773061592
 10
2.308122393448754
 20
0.9730770140102843
 10
2.502334217449415
 20
0.8874921424167725
 10
2.643878428161761
 20
0.8446997066200167
 10
2.824923348840344
 20
0.8216576258063789
 10
2.923675123755935
 20
0.8315328032979379
 10
3.091553141112438
 20
0.8907838682472923
 10
3.374641562537131
 20
0.9928273689934024
 10
3.588603741520911
 20
1.081703966417434
 10
3.801151507061889
 20
1.162184091312835
 10
4.01511368604567
 20
1.247768962906347
 10
4.258701397504126
 20
1.31689520534726
 10
4.406829059877511
 20
1.323478657008299
 10
4.703084384624283
 20
1.323478657008299
 10
4.903879660285984
 20
1.270811043719984
 10
5.232987951817827
 20
1.134744470522487
 10
5.506201195750961
 20
1.012950614793259
 10
5.690537842260063
 20
0.9438243723523453
 10
5.940709005379559
 20
0.8648229524198728
 10
6.138212555210741
 20
0.8450725974367547
 10
6.365341637516599
 20
0.8746981299114319
 10
6.602345897314016
 20
0.9372409206913058
 10
6.771053275280162
 20
1.009263496113955
 10
6.932347840975626
 20
1.075098012724348
 10
7.129851390806808
 20
1.150807706826301
 10
7.320771488976949
 20
1.219933949267214
 10
7.531441942130209
 20
1.233100852589293
 10
7.705903411147752
 20
1.242976030080852
 10
7.949491122606209
 20
1.223225675097734
 10
8.199662285725704
 20
1.170558061809419
 10
8.46300035216728
 20
1.088264916046427
 10
8.723046692778334
 20
1.005971770283435
 10
8.98967648505043
 20
0.9565958828256395
 10
9.174136571278177
 20
0.9381056416370168
 10
9.37690688243819
 20
0.9512725449590956
 10
9.627078045557685
 20
1.006573538911826
 10
9.835115118046529
 20
1.088208339508715
 10
10.0429155977413
 20
1.192504615120089
 10
10.14738931794823
 20
1.321087655374764
 10
10.2277537181074
 20
1.513962215756777
 10
10.22484861571495
 20
1.691599630432228
 10
10.31244919998976
 20
1.749998400325121
 10
10.3437119999872
 20
2.7499980002432
 10
10.37496279998464
 20
2.812497600238081
 10
10.39406889569091
 20
3.5
 10
10.53125
 20
3.5
 10
10.65625
 20
3.4375
 10
11.03125
 20
3.5
 10
11.03125120033024
 20
3.687551599992318
 10
10.65625200036096
 20
3.750056399987197
 10
10.5312512003712
 20
3.687557999992317
 10
10.39928128967509
 20
3.687559689207174
 10
10.40622719998208
 20
3.937497200145921
 10
10.4999771999744
 20
3.93749600014592
 10
10.4999791999744
 20
4.093746000133121
 10
10.3437291999872
 20
4.093748000133121
 10
10.3437447999872
 20
5.312498000033281
 10
10.28124479999232
 20
5.31249880003328
 10
10.1875
 20
5.71875
 10
10.09375
 20
5.3125
 10
10.03125
 20
5.3125
 10
10.03125
 20
4.09375
 10
9.875
 20
4.09375
 10
9.875
 20
3.9375
 10
9.96875
 20
3.9375
 10
9.975692635801613
 20
3.687565111141944
 10
9.531251200453122
 20
3.687570799992317
 10
9.531253600453121
 20
3.875070799976957
 42
0.8198039027185592
 10
9.37500360046592
 20
3.875072799976957
 10
9.37500280046592
 20
3.812572799982077
 10
9.218303369403163
 20
3.812574805734795
 42
0.3627177008539751
 10
9.03125480049408
 20
3.968827199969277
 10
8.500004800537601
 20
3.968833999969277
 10
8.500014140893345
 20
4.698549292388451
 42
0.5914248374130353
 10
8.59377360052992
 20
5.437582799848957
 10
8.593768800529919
 20
5.062582799879676
 10
8.3437668005504
 20
4.906335999892477
 10
8.09376880057088
 20
5.062589199879676
 10
8.09377360057088
 20
5.437589199848956
 42
0.5914248374130383
 10
8.187514140918944
 20
4.698553292388451
 10
8.1875048005632
 20
3.968837999969276
  0
LWPOLYLINE
  5
AAA
330
1F
100
AcDbEntity
  8
0
100
AcDbPolyline
 90
       18
 70
     1
 43
0.0
 10
6.550730054967093
 20
5.25
 10
5.1875
 20
5.25
 10
5.1875
 20
5.4375
 10
4.4375
 20
5.4375
 10
4.4375
 20
4.75
 10
5.1875
 20
4.75
 10
5.1875
 20
4.9375
 10
5.68745
 20
4.9375
 10
5.68745
 20
2.967351013854366
 42
0.4142135623730941
 10
5.531149999999999
 20
2.811051013854366
 10
5.53115
 20
2.065039303134217
 42
0.414213562373095
 10
5.68745
 20
1.908739303134217
 10
6.00005
 20
1.908739303134217
 42
0.414213562373095
 10
6.15635
 20
2.065039303134217
 10
6.15635
 20
2.811051013854367
 42
0.4142135623730959
 10
6.000049999999998
 20
2.967351013854367
 10
6.00005
 20
4.9375
 10
6.5625
 20
4.9375
 42
4.005014626477528
  0
LWPOLYLINE
  5
C4C
330
1F
100
AcDbEntity
  8
0
100
AcDbPolyline
 90
      146
 70
     1
 43
0.0
 10
2.634574115648626
 20
5.193832492193829
 10
2.642092137113451
 20
5.299571325916769
 10
2.634395008303116
 20
5.406465388838834
 10
2.61775686043648
 20
5.486876465384706
 10
2.569736183664265
 20
5.56562754212279
 10
2.509895668256403
 20
5.624013271777216
 10
2.371115299883979
 20
5.618404049248086
 10
2.316181947419345
 20
5.555379391386625
 10
2.274673446021397
 20
5.473009725873368
 10
2.264579075755401
 20
5.391518174871861
 10
2.265533846125277
 20
5.284351599422935
 10
2.266488616495152
 20
5.177185023974012
 10
1.980008955298316
 20
5.102618391811403
 10
1.943869151386747
 20
5.202273477868594
 10
1.893359742007522
 20
5.296795359166373
 10
1.845453906259991
 20
5.363487188478731
 10
1.769553886530757
 20
5.415898108048713
 10
1.691139239813742
 20
5.444896795808743
 10
1.56663854101891
 20
5.383325454889727
 10
1.542088864171335
 20
5.303406157606544
 10
1.537671722507826
 20
5.211274695311658
 10
1.561595656296957
 20
5.132722708782026
 10
1.606056455579473
 20
5.0352095106647
 10
1.65051725486199
 20
4.937696312547374
 10
1.419134043319918
 20
4.753054528738822
 10
1.345585314448078
 20
4.829394597412944
 10
1.260997160245209
 20
4.895200605105714
 10
1.190106990828387
 20
4.936641564020203
 10
1.099451431083351
 20
4.953650002290177
 10
1.016021257849253
 20
4.948247511597295
 10
0.9273275305069815
 20
4.841360296491361
 10
0.9374063914302253
 20
4.758365132330743
 10
0.9708443734232493
 20
4.672402240073075
 10
1.024649945773249
 20
4.610372170108684
 10
1.104929097858779
 20
4.539373267157035
 10
1.185208249944308
 20
4.468374364205387
 10
1.048929747383108
 20
4.205583670589337
 10
0.9506893369421636
 20
4.24540883047888
 10
0.8466484982365836
 20
4.271120508007751
 10
0.7650315494596089
 20
4.280145078248763
 10
0.675295619558594
 20
4.258810121725039
 10
0.6012757546989205
 20
4.21994059230013
 10
0.5637249500239037
 20
4.086219273538963
 10
0.6066896221007587
 20
4.014498860371676
 10
0.6722009968891927
 20
3.949568303170935
 10
0.7465847355324682
 20
3.914785712394124
 10
0.8488012457122212
 20
3.882577459933277
 10
0.9510177558919741
 20
3.85036920747243
 10
0.9334077534558083
 20
3.554868502353601
 10
0.8274623208971077
 20
3.551292621513445
 10
0.7219584038823577
 20
3.532464186250418
 10
0.643726987655473
 20
3.507511937637636
 10
0.5704268451036931
 20
3.45152259412516
 10
0.5186159957020422
 20
3.385906920724381
 10
0.5387009889609438
 20
3.248473129141828
 10
0.60712249006753
 20
3.200428577963994
 10
0.6933797457982962
 20
3.167757439035781
 10
0.7754800265683741
 20
3.16623655338178
 10
0.8819597316244288
 20
3.178388050865002
 10
0.9884394366804843
 20
3.190539548348226
 10
1.092542863772414
 20
2.913423588181291
 10
0.9972113368693964
 20
2.867064968894555
 10
0.9084869272703244
 20
2.806952028347572
 10
0.8471679661692617
 20
2.752337431350206
 10
0.8029778715248099
 20
2.671374766989505
 10
0.7823346041295176
 20
2.59035849564353
 10
0.8565825175214368
 20
2.472975782351013
 10
0.9386301485266024
 20
2.456914432532327
 10
1.030718622061284
 20
2.46215184860531
 10
1.106339560555383
 20
2.494155643020505
 10
1.198671152145795
 20
2.54856578614006
 10
1.291002743736207
 20
2.602975929259615
 10
1.498819172062094
 20
2.392160581076901
 10
1.430585237876026
 20
2.311035049773098
 10
1.373981592148266
 20
2.220031677471654
 10
1.340177691612674
 20
2.145198092068588
 10
1.332738513693983
 20
2.05326128705034
 10
1.346832236775892
 20
1.970852867084607
 10
1.462404931554248
 20
1.893817769598876
 10
1.543891911677872
 20
1.912516774435769
 10
1.625888669344805
 20
1.954757148690498
 10
1.681954718302634
 20
2.014751876375159
 10
1.744173225435246
 20
2.102012657085043
 10
1.806391732567858
 20
2.189273437794925
 10
2.081987813717174
 20
2.081210590494537
 10
2.052649739354656
 20
1.979345488538407
 10
2.037954142072517
 20
1.873186994293103
 10
2.037510303603794
 20
1.791073827242307
 10
2.068108343855815
 20
1.704059590373822
 10
2.114502124656608
 20
1.634508186257398
 10
2.251416031949254
 20
1.611140772775626
 10
2.318252522041987
 20
1.661366904456674
 10
2.375979579523401
 20
1.733306492442754
 10
2.402796409736089
 20
1.810918519945211
 10
2.424143687290278
 20
1.915941756521379
 10
2.445490964844467
 20
2.020964993097546
 10
2.741213632674699
 20
2.03433969469787
 10
2.75584423772105
 20
1.92934842363303
 10
2.785597691159923
 20
1.826390575518523
 10
2.818590658461457
 20
1.751195939377784
 10
2.881935237750147
 20
1.684149822713147
 10
2.952607170095101
 20
1.639481504072432
 10
3.087188631507337
 20
1.673822212671904
 10
3.127817995241696
 20
1.746890916739373
 10
3.151293819865201
 20
1.83609071014337
 10
3.144224557765718
 20
1.917900212825314
 10
3.121009467518438
 20
2.022526433557594
 10
3.097794377271158
 20
2.127152654289874
 10
3.362510495958361
 20
2.259652297378863
 10
3.418580015886192
 20
2.169688801788176
 10
3.487637877644858
 20
2.087733947086152
 10
3.548362866938517
 20
2.032459677566027
 10
3.633501132037423
 20
1.996974563771402
 10
3.716231396789746
 20
1.984912888698311
 10
3.825210055009204
 20
2.071023898886637
 10
3.832607106289335
 20
2.154300932598922
 10
3.817772514706355
 20
2.245337476786602
 10
3.778039499933934
 20
2.317198848418327
 10
3.714276141891411
 20
2.403337229242733
 10
3.65051278384889
 20
2.489475610067139
 10
3.337129916807822
 20
2.800178892827044
 42
-2.669754143089121
 10
3.434092338714777
 20
4.305511544427665
 10
3.78474655109273
 20
4.573442458310813
 10
3.859033936359436
 20
4.650688628896449
 10
3.933321321626142
 20
4.727934799482085
 10
3.981945303101583
 20
4.794104865381812
 10
4.008336653713909
 20
4.882485938570174
 10
4.011684586228628
 20
4.966023786635796
 10
3.914653929491408
 20
5.065404396797492
 10
3.831059893680194
 20
5.06405610589731
 10
3.742072694268257
 20
5.039786869694055
 10
3.674758217724463
 20
4.992759957788921
 10
3.59575679779199
 20
4.920341989517487
 10
3.516755377859517
 20
4.847924021246054
 10
3.26964926160848
 20
5.010925083275894
 10
3.319525174239348
 20
5.104464459706737
 10
3.355971229495431
 20
5.205247749671789
 10
3.373477656428658
 20
5.285474267804696
 10
3.361639533881531
 20
5.376948725111797
 10
3.33072011853086
 20
5.454626073585667
 10
3.201656467052501
 20
5.505948854979895
 10
3.125837914665782
 20
5.470716372445443
 10
3.054415250517997
 20
5.412350967185976
 10
3.01204798452034
 20
5.342010481208254
 10
2.969331637506807
 20
5.243720602900623
 10
2.926615290493274
 20
5.145430724592995
  0
ENDSEC
  0
SECTION
  2
OBJECTS
  0
DICTIONARY
  5
C
330
0
100
AcDbDictionary
281
     1
  3
ACAD_GROUP
350
D
  3
ACAD_IMAGE_DICT
350
E3
  3
ACAD_IMAGE_VARS
350
DC
  3
ACAD_LAYOUT
350
1A
  3
ACAD_MLINESTYLE
350
17
  3
ACAD_PLOTSETTINGS
350
19
  3
ACAD_PLOTSTYLENAME
350
E
  3
ACAD_SCALELIST
350
B6
  3
AcDbVariableDictionary
350
66
  3
APPDATA
350
E1
  3
DWGPROPS
350
ED1
  0
DICTIONARY
  5
130
330
2
100
AcDbDictionary
280
     1
281
     1
  3
ACAD_LAYERSTATES
360
131
  3
ACLYDICTIONARY
360
183
  0
DICTIONARY
  5
D
102
{ACAD_REACTORS
330
C
102
}
330
C
100
AcDbDictionary
281
     1
  0
DICTIONARY
  5
E3
102
{ACAD_REACTORS
330
C
102
}
330
C
100
AcDbDictionary
281
     1
  3
CTHacker
350
E4
  0
RASTERVARIABLES
  5
DC
102
{ACAD_REACTORS
330
C
102
}
330
C
100
AcDbRasterVariables
 90
        0
 70
     1
 71
     1
 72
     5
  0
DICTIONARY
  5
1A
102
{ACAD_REACTORS
330
C
102
}
330
C
100
AcDbDictionary
281
     1
  3
Model
350
22
  3
Sheet1
350
59
  3
Sheet2
350
5E
  0
DICTIONARY
  5
17
102
{ACAD_REACTORS
330
C
102
}
330
C
100
AcDbDictionary
281
     1
  3
Standard
350
18
  0
DICTIONARY
  5
19
102
{ACAD_REACTORS
330
C
102
}
330
C
100
AcDbDictionary
281
     1
  0
ACDBDICTIONARYWDFLT
  5
E
102
{ACAD_REACTORS
330
C
102
}
330
C
100
AcDbDictionary
281
     1
  3
Normal
350
F
100
AcDbDictionaryWithDefault
340
F
  0
DICTIONARY
  5
B6
102
{ACAD_REACTORS
330
C
102
}
330
C
100
AcDbDictionary
281
     1
  3
A0
350
B7
  3
A1
350
B8
  3
A2
350
B9
  3
A3
350
BA
  3
A4
350
BB
  3
A5
350
BC
  3
A6
350
BD
  3
A7
350
BE
  3
A8
350
BF
  3
A9
350
C0
  3
B0
350
C1
  3
B1
350
C2
  3
B2
350
C3
  3
B3
350
C4
  3
B4
350
C5
  3
B5
350
C6
  3
B6
350
C7
  3
B7
350
C8
  3
B8
350
C9
  3
B9
350
CA
  3
C0
350
CB
  3
C1
350
CC
  3
C2
350
CD
  3
C3
350
CE
  3
C4
350
CF
  3
C5
350
D0
  3
C6
350
D1
  3
C7
350
D2
  3
C8
350
D3
  3
C9
350
D4
  3
D0
350
D5
  3
D1
350
D6
  3
D2
350
D7
  0
DICTIONARY
  5
66
102
{ACAD_REACTORS
330
C
102
}
330
C
100
AcDbDictionary
281
     1
  3
CANNOSCALE
350
ED2
  3
DIMASSOC
350
67
  3
HIDETEXT
350
6B
  0
DICTIONARY
  5
E1
102
{ACAD_REACTORS
330
C
102
}
330
C
100
AcDbDictionary
281
     1
  0
XRECORD
  5
ED1
102
{ACAD_REACTORS
330
C
102
}
330
C
100
AcDbXrecord
280
     1
  1
DWGPROPS COOKIE
  2

  3

  4

  6

  7

  8

  9

300
=
301
=
302
=
303
=
304
=
305
=
306
=
307
=
308
=
309
=
 40
0.0
 41
2452643.063384271
 42
2456345.906793981
  1

 90
        0
  0
DICTIONARY
  5
131
102
{ACAD_REACTORS
330
130
102
}
330
130
100
AcDbDictionary
281
     1
  3
ARGON_LAYERP_1
350
132
  3
ARGON_LAYERP_2
350
182
  0
DICTIONARY
  5
183
102
{ACAD_REACTORS
330
130
102
}
330
130
100
AcDbDictionary
281
     1
1001
ACAD
1000
<All
  0
IMAGEDEF
  5
E4
102
{ACAD_REACTORS
330
E3
330
E6
102
}
330
E3
100
AcDbRasterImageDef
 90
        0
  1
/home/tocs/4gary/play/3dSheetCam/CTHacker.png
 10
240.0
 20
153.0
 11
0.004166666666666667
 21
0.004166666666666667
280
     1
281
     0
  0
LAYOUT
  5
22
102
{ACAD_REACTORS
330
1A
102
}
330
1A
100
AcDbPlotSettings
  1

  2
none_device
  4
ANSI_A_(8.50_x_11.00_Inches)
  6

 40
6.35
 41
19.05
 42
6.35
 43
19.05
 44
215.9
 45
279.4
 46
11.11250000000003
 47
0.0000000000000142
 48
0.0
 49
0.0
140
0.0
141
0.0
142
1.0
143
1.263157894736842
 70
 11444
 72
     0
 73
     1
 74
     1
  7
monochrome.ctb
 75
     0
147
0.7916666666666665
148
-702.8076765758875
149
-496.2830551296954
100
AcDbLayout
  1
Model
 70
     1
 71
     0
 10
0.0
 20
0.0
 11
12.0
 21
9.0
 12
0.0
 22
0.0
 32
0.0
 14
0.0
 24
-0.0625
 34
0.0
 15
15.0625
 25
11.6875
 35
0.0
146
0.0
 13
0.0
 23
0.0
 33
0.0
 16
1.0
 26
0.0
 36
0.0
 17
0.0
 27
1.0
 37
0.0
 76
     0
330
1F
331
94
  0
LAYOUT
  5
59
102
{ACAD_REACTORS
330
1A
102
}
330
1A
100
AcDbPlotSettings
  1

  2
None
  4

  6

 40
0.0
 41
0.0
 42
0.0
 43
0.0
 44
0.0
 45
0.0
 46
0.0
 47
0.0
 48
0.0
 49
0.0
140
0.0
141
0.0
142
1.0
143
1.0
 70
   688
 72
     0
 73
     0
 74
     5
  7

 75
    16
147
1.0
148
0.0
149
0.0
100
AcDbLayout
  1
Sheet1
 70
     1
 71
     1
 10
0.0
 20
0.0
 11
12.0
 21
9.0
 12
0.0
 22
0.0
 32
0.0
 14
0.0
 24
0.0
 34
0.0
 15
0.0
 25
0.0
 35
0.0
146
0.0
 13
0.0
 23
0.0
 33
0.0
 16
1.0
 26
0.0
 36
0.0
 17
0.0
 27
1.0
 37
0.0
 76
     0
330
58
  0
LAYOUT
  5
5E
102
{ACAD_REACTORS
330
1A
102
}
330
1A
100
AcDbPlotSettings
  1

  2
None
  4

  6

 40
0.0
 41
0.0
 42
0.0
 43
0.0
 44
0.0
 45
0.0
 46
0.0
 47
0.0
 48
0.0
 49
0.0
140
0.0
141
0.0
142
1.0
143
1.0
 70
   688
 72
     0
 73
     0
 74
     5
  7

 75
    16
147
1.0
148
0.0
149
0.0
100
AcDbLayout
  1
Sheet2
 70
     1
 71
     2
 10
0.0
 20
0.0
 11
12.0
 21
9.0
 12
0.0
 22
0.0
 32
0.0
 14
0.0
 24
0.0
 34
0.0
 15
0.0
 25
0.0
 35
0.0
146
0.0
 13
0.0
 23
0.0
 33
0.0
 16
1.0
 26
0.0
 36
0.0
 17
0.0
 27
1.0
 37
0.0
 76
     0
330
5D
  0
MLINESTYLE
  5
18
102
{ACAD_REACTORS
330
17
102
}
330
17
100
AcDbMlineStyle
  2
STANDARD
 70
     0
  3

 62
   256
 51
90.0
 52
90.0
 71
     2
 49
0.5
 62
   256
  6
BYLAYER
 49
-0.5
 62
   256
  6
BYLAYER
  0
ACDBPLACEHOLDER
  5
F
102
{ACAD_REACTORS
330
E
102
}
330
E
  0
SCALE
  5
B7
102
{ACAD_REACTORS
330
B6
102
}
330
B6
100
AcDbScale
 70
     0
300
1:1
140
1.0
141
1.0
290
     1
  0
SCALE
  5
B8
102
{ACAD_REACTORS
330
B6
102
}
330
B6
100
AcDbScale
 70
     0
300
1:2
140
1.0
141
2.0
290
     0
  0
SCALE
  5
B9
102
{ACAD_REACTORS
330
B6
102
}
330
B6
100
AcDbScale
 70
     0
300
1:4
140
1.0
141
4.0
290
     0
  0
SCALE
  5
BA
102
{ACAD_REACTORS
330
B6
102
}
330
B6
100
AcDbScale
 70
     0
300
1:5
140
1.0
141
5.0
290
     0
  0
SCALE
  5
BB
102
{ACAD_REACTORS
330
B6
102
}
330
B6
100
AcDbScale
 70
     0
300
1:8
140
1.0
141
8.0
290
     0
  0
SCALE
  5
BC
102
{ACAD_REACTORS
330
B6
102
}
330
B6
100
AcDbScale
 70
     0
300
1:10
140
1.0
141
10.0
290
     0
  0
SCALE
  5
BD
102
{ACAD_REACTORS
330
B6
102
}
330
B6
100
AcDbScale
 70
     0
300
1:16
140
1.0
141
16.0
290
     0
  0
SCALE
  5
BE
102
{ACAD_REACTORS
330
B6
102
}
330
B6
100
AcDbScale
 70
     0
300
1:20
140
1.0
141
20.0
290
     0
  0
SCALE
  5
BF
102
{ACAD_REACTORS
330
B6
102
}
330
B6
100
AcDbScale
 70
     0
300
1:30
140
1.0
141
30.0
290
     0
  0
SCALE
  5
C0
102
{ACAD_REACTORS
330
B6
102
}
330
B6
100
AcDbScale
 70
     0
300
1:40
140
1.0
141
40.0
290
     0
  0
SCALE
  5
C1
102
{ACAD_REACTORS
330
B6
102
}
330
B6
100
AcDbScale
 70
     0
300
1:50
140
1.0
141
50.0
290
     0
  0
SCALE
  5
C2
102
{ACAD_REACTORS
330
B6
102
}
330
B6
100
AcDbScale
 70
     0
300
1:100
140
1.0
141
100.0
290
     0
  0
SCALE
  5
C3
102
{ACAD_REACTORS
330
B6
102
}
330
B6
100
AcDbScale
 70
     0
300
2:1
140
2.0
141
1.0
290
     0
  0
SCALE
  5
C4
102
{ACAD_REACTORS
330
B6
102
}
330
B6
100
AcDbScale
 70
     0
300
4:1
140
4.0
141
1.0
290
     0
  0
SCALE
  5
C5
102
{ACAD_REACTORS
330
B6
102
}
330
B6
100
AcDbScale
 70
     0
300
8:1
140
8.0
141
1.0
290
     0
  0
SCALE
  5
C6
102
{ACAD_REACTORS
330
B6
102
}
330
B6
100
AcDbScale
 70
     0
300
10:1
140
10.0
141
1.0
290
     0
  0
SCALE
  5
C7
102
{ACAD_REACTORS
330
B6
102
}
330
B6
100
AcDbScale
 70
     0
300
100:1
140
100.0
141
1.0
290
     0
  0
SCALE
  5
C8
102
{ACAD_REACTORS
330
B6
102
}
330
B6
100
AcDbScale
 70
     0
300
1/128" = 1'-0"
140
0.0078125
141
12.0
290
     0
  0
SCALE
  5
C9
102
{ACAD_REACTORS
330
B6
102
}
330
B6
100
AcDbScale
 70
     0
300
1/64" = 1'-0"
140
0.015625
141
12.0
290
     0
  0
SCALE
  5
CA
102
{ACAD_REACTORS
330
B6
102
}
330
B6
100
AcDbScale
 70
     0
300
1/32" = 1'-0"
140
0.03125
141
12.0
290
     0
  0
SCALE
  5
CB
102
{ACAD_REACTORS
330
B6
102
}
330
B6
100
AcDbScale
 70
     0
300
1/16" = 1'-0"
140
0.0625
141
12.0
290
     0
  0
SCALE
  5
CC
102
{ACAD_REACTORS
330
B6
102
}
330
B6
100
AcDbScale
 70
     0
300
3/32" = 1'-0"
140
0.09375
141
12.0
290
     0
  0
SCALE
  5
CD
102
{ACAD_REACTORS
330
B6
102
}
330
B6
100
AcDbScale
 70
     0
300
1/8" = 1'-0"
140
0.125
141
12.0
290
     0
  0
SCALE
  5
CE
102
{ACAD_REACTORS
330
B6
102
}
330
B6
100
AcDbScale
 70
     0
300
3/16" = 1'-0"
140
0.1875
141
12.0
290
     0
  0
SCALE
  5
CF
102
{ACAD_REACTORS
330
B6
102
}
330
B6
100
AcDbScale
 70
     0
300
1/4" = 1'-0"
140
0.25
141
12.0
290
     0
  0
SCALE
  5
D0
102
{ACAD_REACTORS
330
B6
102
}
330
B6
100
AcDbScale
 70
     0
300
3/8" = 1'-0"
140
0.375
141
12.0
290
     0
  0
SCALE
  5
D1
102
{ACAD_REACTORS
330
B6
102
}
330
B6
100
AcDbScale
 70
     0
300
1/2" = 1'-0"
140
0.5
141
12.0
290
     0
  0
SCALE
  5
D2
102
{ACAD_REACTORS
330
B6
102
}
330
B6
100
AcDbScale
 70
     0
300
3/4" = 1'-0"
140
0.75
141
12.0
290
     0
  0
SCALE
  5
D3
102
{ACAD_REACTORS
330
B6
102
}
330
B6
100
AcDbScale
 70
     0
300
1" = 1'-0"
140
1.0
141
12.0
290
     0
  0
SCALE
  5
D4
102
{ACAD_REACTORS
330
B6
102
}
330
B6
100
AcDbScale
 70
     0
300
1-1/2" = 1'-0"
140
1.5
141
12.0
290
     0
  0
SCALE
  5
D5
102
{ACAD_REACTORS
330
B6
102
}
330
B6
100
AcDbScale
 70
     0
300
3" = 1'-0"
140
3.0
141
12.0
290
     0
  0
SCALE
  5
D6
102
{ACAD_REACTORS
330
B6
102
}
330
B6
100
AcDbScale
 70
     0
300
6" = 1'-0"
140
6.0
141
12.0
290
     0
  0
SCALE
  5
D7
102
{ACAD_REACTORS
330
B6
102
}
330
B6
100
AcDbScale
 70
     0
300
1'-0" = 1'-0"
140
12.0
141
12.0
290
     0
  0
DICTIONARYVAR
  5
ED2
102
{ACAD_REACTORS
330
66
102
}
330
66
100
DictionaryVariables
280
     0
  1
1:1
  0
DICTIONARYVAR
  5
67
102
{ACAD_REACTORS
330
66
102
}
330
66
100
DictionaryVariables
280
     0
  1
2
  0
DICTIONARYVAR
  5
6B
102
{ACAD_REACTORS
330
66
102
}
330
66
100
DictionaryVariables
280
     0
  1
1
  0
XRECORD
  5
132
102
{ACAD_REACTORS
330
131
102
}
330
131
100
AcDbXrecord
280
     1
 91
     1023
301

290
     0
302
0
330
10
 90
        8
 62
     7
370
    -3
331
16
  1
Color_7
330
ED
 90
        8
 62
     7
370
    -3
331
16
  1
Color_7
330
EE
 90
        8
 62
     7
370
    -3
331
16
  1
Color_7
330
EF
 90
        8
 62
     7
370
    -3
331
16
  1
Color_7
  0
XRECORD
  5
182
102
{ACAD_REACTORS
330
131
102
}
330
131
100
AcDbXrecord
280
     1
 91
     1023
301

290
     0
302
0
330
10
 90
        8
 62
     4
370
    -3
331
16
  1
Color_4
330
ED
 90
        8
 62
     7
370
    -3
331
16
  1
Color_7
330
EE
 90
        8
 62
     7
370
    -3
331
16
  1
Color_7
330
EF
 90
        8
 62
     7
370
    -3
331
16
  1
Color_7
  0
ENDSEC
  0
EOF
